<?xml version="1.0" encoding="UTF-8"?> <svg xmlns="http://www.w3.org/2000/svg" width="625" height="617" viewBox="0 0 625 617" fill="none"><path d="M347.529 484.625C292.795 483.618 248.501 487.481 212.855 471.691C177.21 455.902 150.213 420.461 120.181 381.4C90.6206 342.313 58.274 299.828 58.3749 257.685C58.6992 215.293 91.7197 173.466 134.795 168.96C177.846 163.982 230.728 196.576 269.636 198.218C308.794 200.083 333.978 170.998 367.111 162.069C400.715 153.114 442.268 164.317 473.854 192.64C505.662 220.713 527.975 265.882 535.812 319.187C543.898 372.715 537.757 434.602 502.113 462.845C466.691 490.838 402.014 485.408 347.529 484.625Z" fill="#d1d1d1"></path></svg> 